<?xml version="1.0" encoding="UTF-8"?><svg width="32" height="32" version="1.1" viewBox="-4 -2.66667 32 32" xmlns="http://www.w3.org/2000/svg" xmlns:xlink="http://www.w3.org/1999/xlink"><!--Generated by IJSVG (https://github.com/iconjar/IJSVG)--><path d="M1.247,6.51h-0.051c-0.656,0 -1.19,0.537 -1.19,1.19v5.183c0,0.656 0.534,1.19 1.19,1.19h0.052c0.655,0 1.19,-0.535 1.19,-1.19v-5.183c-0.001,-0.654 -0.536,-1.19 -1.191,-1.19Zm1.76,8.373c0,0.602 0.492,1.092 1.094,1.092h1.17v2.8c0,0.657 0.535,1.191 1.19,1.191h0.05c0.657,0 1.192,-0.535 1.192,-1.192v-2.799h1.634v2.8c0,0.657 0.538,1.191 1.192,1.191h0.05c0.657,0 1.191,-0.535 1.191,-1.192v-2.799h1.17c0.601,0 1.093,-0.49 1.093,-1.092v-8.182h-11.026v8.182Zm8.259,-13.145l0.929,-1.433l-4.02506e-09,5.83092e-09c0.0618082,-0.0895388 0.0393282,-0.21223 -0.0502107,-0.274038c-0.0895388,-0.0618082 -0.21223,-0.0393282 -0.274038,0.0502107c-0.00199542,0.00289068 -0.00391318,0.00583421 -0.00575121,0.00882743l-0.963,1.483l-4.19099e-07,-1.70368e-07c-0.755765,-0.307225 -1.56418,-0.464153 -2.38,-0.462c-0.854,0 -1.658,0.166 -2.382,0.462l-0.961,-1.483l2.91119e-09,4.55486e-09c-0.0585932,-0.091675 -0.18041,-0.118493 -0.272085,-0.0598999c-0.000977388,0.000624688 -0.00194924,0.001258 -0.00291544,0.00189985l2.07175e-08,-1.34049e-08c-0.0913465,0.059104 -0.117484,0.181068 -0.0583802,0.272415c0.000126387,0.000195334 0.000253121,0.000390445 0.000380199,0.00058533l0.93,1.433c-1.676,0.822 -2.806,2.369 -2.806,4.144c0,0.11 0.006,0.217 0.016,0.323h11.07c0.008,-0.106 0.014,-0.214 0.014,-0.323c0,-1.775 -1.13,-3.322 -2.805,-4.144Zm-5.311,2.567l-3.04291e-08,5.71969e-11c-0.293815,0.00055227 -0.532448,-0.237185 -0.533,-0.531c-0.00055227,-0.293815 0.237185,-0.532448 0.531,-0.533l-2.51552e-08,4.72848e-11c0.293815,-0.000552296 0.532448,0.237184 0.533,0.531c0.000552296,0.293815 -0.237184,0.532448 -0.531,0.533Zm5.132,0l-3.08519e-08,8.69882e-11c-0.293815,0.000828413 -0.532672,-0.236685 -0.5335,-0.5305c-0.000828413,-0.293815 0.236685,-0.532672 0.5305,-0.5335l-2.73578e-08,7.71374e-11c0.293815,-0.000828439 0.532672,0.236684 0.5335,0.5305c0.000828439,0.293815 -0.236684,0.532672 -0.5305,0.5335Zm4.758,2.205h-0.05c-0.655,0 -1.191,0.537 -1.191,1.19v5.183c0,0.656 0.537,1.19 1.191,1.19h0.05c0.657,0 1.191,-0.535 1.191,-1.19v-5.183c0,-0.654 -0.535,-1.19 -1.191,-1.19Z" transform="scale(1.33333)" fill="#000"></path></svg>